<?xml version="1.0" standalone="no"?><!DOCTYPE svg PUBLIC "-//W3C//DTD SVG 1.1//EN" "http://www.w3.org/Graphics/SVG/1.1/DTD/svg11.dtd"><svg t="1764787126873" class="icon" viewBox="0 0 1024 1024" version="1.1" xmlns="http://www.w3.org/2000/svg" p-id="6886" xmlns:xlink="http://www.w3.org/1999/xlink" width="256" height="256"><path d="M369.849313 588.569814c0.14111 0 0.246943-0.105833 0.352775-0.105832l134.442553 1.4111-80.750198 266.062907 0.14111 0.035277c-0.246943 1.516933-0.56444 2.998588-0.529162 4.586075 0.28222 9.842423-2.010818 8.784098 5.115237 8.396045 3.633583-0.211665 7.020223-2.575258 9.31326-6.455782l205.173942-335.206808c0.176388-0.246943 0.317498-0.529163 0.493885-0.811382l0.105832-0.176388c2.081373-3.351363 3.174975-7.655218 3.069143-12.029627-0.28222-9.419093-5.891343-16.897923-12.770455-16.9332h-0.105833c-0.211665 0-0.352775-0.14111-0.529162-0.105833-0.14111 0-0.211665 0.105833-0.317498 0.105833l-82.090743-1.164158 56.055948-168.026734-0.035278-0.035277c0.881938-2.504703 1.340545-5.256348 1.26999-8.007993-0.14111-4.727185-1.622765-9.17215-4.162745-12.347125-2.53998-3.210253-5.856065-4.903573-9.31326-4.691907-0.14111 0-0.246943 0.105833-0.352775 0.105832l-149.752988-0.070555c-0.211665 0-0.352775-0.105833-0.529163-0.105832-4.974128 0.28222-9.383815 4.51552-11.324077 10.830192l-0.035278 0.105833c-0.105833 0.317498-0.211665 0.634995-0.28222 0.952492L320.707755 576.081579c-0.776105 2.39887-1.164158 5.009405-1.093603 7.655218 0.28222 9.807145 43.073828 5.22107 50.235161 4.833017z m0 0" fill="#2563eb" p-id="6887" data-spm-anchor-id="a313x.search_index.0.i0.7a593a816utuwM" class="selected"></path><path d="M474.164881 256.044097l206.443931 0.105832-94.5437 206.443932 0.070555 0.035277c-1.481655 3.069143-2.222483 6.455783-2.187205 9.8777 0.42333 11.71213 10.054088 20.74317 21.625107 20.849003h0.14111c0.352775 0 0.634995 0.211665 0.952493 0.176388 0.211665 0 0.352775-0.14111 0.56444-0.14111l126.187618 1.305267-260.065732 309.48951 44.978813-195.472629-0.246942-0.070555c0.42333-1.83443 0.98777-3.704138 0.917215-5.679678-0.458608-12.064905-10.653805-21.483998-22.71871-21.02539-0.211665 0-0.388053 0.14111-0.599718 0.14111H334.536535l139.628346-326.034657zM302.43401 625.681745c0.211665 0 0.388053-0.105833 0.599717-0.14111h166.792021l-59.054535 256.820201 0.211665 0.035278c-0.388053 1.869708-0.952493 3.704138-0.881937 5.6444 0.458608 12.13546 10.653805 21.519275 22.71871 21.060668 6.138285-0.28222 11.888518-3.174975 15.769042-7.937438L795.331243 488.593379c0.317498-0.317498 0.529163-0.670273 0.811383-0.98777l0.14111-0.211665h-0.035278c3.52775-4.127468 5.397458-9.383815 5.22107-14.816551-0.458608-11.606298-9.983533-20.778448-21.58983-20.849002v-0.035278h-0.176387c-0.317498 0-0.599718-0.14111-0.917215-0.14111-0.211665 0-0.352775 0.105833-0.529163 0.105833l-138.746408-1.446378L734.230613 243.414752l-0.105833-0.035278c1.481655-3.069143 2.222483-6.455783 2.187205-9.8777-0.211665-5.78551-2.751645-11.2888-7.020222-15.204602a21.768334 21.768334 0 0 0-15.733765-5.78551c-0.211665 0-0.388053 0.14111-0.599718 0.14111l-253.080787-0.105833c-0.317498 0-0.599718-0.14111-0.917215-0.14111-8.431323 0.352775-15.874875 5.573845-19.120405 13.334895v-0.035277l-0.070555 0.14111c-0.14111 0.388053-0.352775 0.776105-0.493885 1.164157l-157.690426 368.19127c-1.305268 2.96331-1.940263 6.173563-1.869707 9.419093 0.493885 12.13546 10.653805 21.554553 22.71871 21.060668z m0 0" fill="#595857" p-id="6888"></path></svg>